<?xml version="1.0" standalone="no"?>
<!DOCTYPE svg PUBLIC "-//W3C//DTD SVG 20010904//EN"
 "http://www.w3.org/TR/2001/REC-SVG-20010904/DTD/svg10.dtd">
<svg version="1.0" xmlns="http://www.w3.org/2000/svg"
 width="512.000000pt" height="512.000000pt" viewBox="0 0 512.000000 512.000000"
 preserveAspectRatio="xMidYMid meet">
<metadata>
Created by potrace 1.14, written by Peter Selinger 2001-2017
</metadata>
<g transform="translate(0.000000,512.000000) scale(0.100000,-0.100000)"
fill="#000000" stroke="none">
<path d="M790 5090 c-71 -21 -125 -69 -150 -135 -23 -62 -12 -241 26 -394 47
-192 50 -220 52 -465 l1 -204 -311 -1 c-347 -1 -356 -2 -390 -71 -20 -40 -24
-152 -8 -196 15 -39 54 -72 95 -80 l35 -6 1 -502 c2 -511 3 -544 13 -701 30
-460 195 -914 469 -1290 29 -38 54 -72 57 -75 3 -3 23 -27 44 -55 71 -91 291
-300 407 -387 361 -270 744 -426 1204 -489 171 -24 528 -15 720 17 153 26 424
106 545 161 313 141 537 291 760 507 309 299 531 662 655 1071 14 46 28 92 30
102 2 10 10 50 19 88 39 175 51 298 51 530 0 180 -8 284 -29 403 -3 17 -8 47
-11 65 -17 98 -77 306 -124 427 -21 52 -30 73 -83 188 -46 98 -176 313 -245
402 -125 163 -308 349 -453 462 -98 75 -264 188 -279 188 -5 0 -11 3 -13 8 -5
11 -193 106 -288 145 -249 102 -528 169 -771 184 -111 6 -152 -8 -174 -60 -10
-25 -12 -188 -11 -774 1 -737 1 -742 22 -770 21 -28 27 -30 184 -68 251 -60
473 -253 568 -495 76 -194 79 -416 6 -609 -86 -228 -297 -426 -529 -498 -120
-37 -296 -50 -400 -28 -335 68 -588 310 -664 635 -21 90 -26 187 -11 205 7 9
11 168 11 514 l1 501 21 0 c33 0 84 35 103 71 21 42 22 165 0 207 -9 17 -29
40 -45 51 -28 20 -41 21 -339 22 -232 0 -311 3 -315 12 -9 26 1 436 12 497 7
36 23 105 36 155 45 170 52 353 16 423 -27 52 -82 97 -136 111 -48 12 -345 13
-385 1z"/>
</g>
</svg>
